<?xml version="1.0" encoding="utf-8"?>
<!-- Generator: Adobe Illustrator 24.3.0, SVG Export Plug-In . SVG Version: 6.00 Build 0)  -->
<svg version="1.1" id="Layer_1" xmlns="http://www.w3.org/2000/svg" xmlns:xlink="http://www.w3.org/1999/xlink" x="0px" y="0px"
	 viewBox="0 0 1100 640" style="enable-background:new 0 0 1100 640;" xml:space="preserve">
<style type="text/css">
	.st0{fill:none;}
	.st1{fill:#B57637;}
	.st2{fill:#EDA737;}
</style>
<rect class="st0" width="1100" height="640"/>
<path class="st1" d="M1100,0H0v640h1100V0z"/>
<path class="st2" d="M266.8,1069.6c-76.3,134.8-163.5,85.6-239.8,220.4l1064.6,612.3L2707-744.2L1554.9-1407
	c-76.3,134.8,10.6,184.2-65.8,319c-76.3,134.8-163.5,85.6-239.8,220.4c-76.4,134.8,10.6,184.2-65.8,319
	c-76.4,134.8-163.5,85.6-239.8,220.4C867.4-193.5,954.3-144,878-9.2S714.5,76.4,638.1,211.2s10.6,184.2-65.8,319
	s-163.5,85.6-239.8,220.4C256.2,885.3,343.1,934.8,266.8,1069.6z"/>
<path class="st1" d="M729.7-2142c46-206.4,288.5-210.6,334.5-417l-551.1,8.9l-919.9,4130.7l551.1-8.9
	c46-206.4-196.5-202.8-150.5-409.2c46-206.4,288.5-210.6,334.5-417c46-206.4-196.5-202.8-150.5-409.2
	c46-206.4,288.5-210.6,334.5-417c46-206.4-196.5-202.8-150.5-409.2c46-206.4,288.5-210.6,334.5-417
	c46-206.4-196.5-202.7-150.5-409.2c46-206.4,288.5-210.6,334.5-417C926.2-1939.2,683.8-1935.6,729.7-2142z"/>
<g>
	<path class="st2" d="M654.5-2156.6c46-206.4,235.3-209.7,281.2-416.1l-430.1,6.9L-849.6,1476l865.4,82
		c46-206.4-143.2-203.6-97.2-410c46-206.4,235.3-209.7,281.2-416.1c46-206.4-143.2-203.6-97.2-410S337.8,112.1,383.8-94.3
		c46-206.4-143.2-203.6-97.2-410s235.3-209.7,281.2-416.1c46-206.4-143.2-203.6-97.2-410c46-206.4,235.3-209.7,281.2-416.1
		C797.7-1953,608.5-1950.2,654.5-2156.6z"/>
</g>
</svg>
